{
  "accessors": [
    {
      "bufferView": 2,
      "componentType": 5126,
      "count": 5454,
      "max": [
        0.006213000044226646,
        0.01132499985396862,
        -0.005375000182539225
      ],
      "min": [
        -0.006213000044226646,
        -0.01132499985396862,
        -0.0145650003105402
      ],
      "type": "VEC3"
    },
    {
      "bufferView": 2,
      "byteOffset": 65448,
      "componentType": 5126,
      "count": 5454,
      "max": [
        0.999995231628418,
        1.0,
        0.9999953508377075
      ],
      "min": [
        -0.999995231628418,
        -1.0,
        -1.0
      ],
      "type": "VEC3"
    },
    {
      "bufferView": 3,
      "componentType": 5126,
      "count": 5454,
      "max": [
        1.0,
        0.9982799291610718,
        1.0,
        1.0
      ],
      "min": [
        -1.0,
        -0.9999446868896484,
        -0.9999709725379944,
        -1.0
      ],
      "type": "VEC4"
    },
    {
      "bufferView": 1,
      "componentType": 5126,
      "count": 5454,
      "max": [
        0.9926339983940125,
        0.9645339846611023
      ],
      "min": [
        0.0030900000128895044,
        -0.0013859999598935246
      ],
      "type": "VEC2"
    },
    {
      "bufferView": 0,
      "componentType": 5125,
      "count": 27072,
      "type": "SCALAR"
    },
    {
      "bufferView": 2,
      "byteOffset": 130896,
      "componentType": 5126,
      "count": 3803,
      "max": [
        0.005960000213235617,
        0.011102999560534954,
        0.0170889999717474
      ],
      "min": [
        -0.005960000213235617,
        -0.011102999560534954,
        -0.006684000138193369
      ],
      "type": "VEC3"
    },
    {
      "bufferView": 2,
      "byteOffset": 176532,
      "componentType": 5126,
      "count": 3803,
      "max": [
        1.0,
        1.0,
        1.0
      ],
      "min": [
        -1.0,
        -1.0,
        -1.0
      ],
      "type": "VEC3"
    },
    {
      "bufferView": 3,
      "byteOffset": 87264,
      "componentType": 5126,
      "count": 3803,
      "max": [
        1.0,
        1.0,
        0.8046988844871521,
        1.0
      ],
      "min": [
        -1.0,
        -1.0,
        -0.9259870052337646,
        -1.0
      ],
      "type": "VEC4"
    },
    {
      "bufferView": 1,
      "byteOffset": 43632,
      "componentType": 5126,
      "count": 3803,
      "max": [
        0.8531579971313477,
        0.7107869982719421
      ],
      "min": [
        0.0,
        0.0
      ],
      "type": "VEC2"
    },
    {
      "bufferView": 0,
      "byteOffset": 108288,
      "componentType": 5125,
      "count": 19968,
      "type": "SCALAR"
    },
    {
      "bufferView": 2,
      "byteOffset": 222168,
      "componentType": 5126,
      "count": 634,
      "max": [
        0.003558000084012747,
        0.0035780000034719706,
        0.010592999868094921
      ],
      "min": [
        -0.003558000084012747,
        -0.0035780000034719706,
        -0.005613999906927347
      ],
      "type": "VEC3"
    },
    {
      "bufferView": 2,
      "byteOffset": 229776,
      "componentType": 5126,
      "count": 634,
      "max": [
        0.994521975517273,
        1.0,
        1.0
      ],
      "min": [
        -0.994521975517273,
        -1.0,
        -0.7090485095977783
      ],
      "type": "VEC3"
    },
    {
      "bufferView": 3,
      "byteOffset": 148112,
      "componentType": 5126,
      "count": 634,
      "max": [
        1.0,
        0.9953171610832214,
        0.9236236214637756,
        1.0
      ],
      "min": [
        -1.0,
        -0.995317280292511,
        -1.0,
        1.0
      ],
      "type": "VEC4"
    },
    {
      "bufferView": 1,
      "byteOffset": 74056,
      "componentType": 5126,
      "count": 634,
      "max": [
        0.9992539882659912,
        0.9999979734420776
      ],
      "min": [
        0.0,
        0.5734289884567261
      ],
      "type": "VEC2"
    },
    {
      "bufferView": 0,
      "byteOffset": 188160,
      "componentType": 5125,
      "count": 1896,
      "type": "SCALAR"
    },
    {
      "bufferView": 2,
      "byteOffset": 237384,
      "componentType": 5126,
      "count": 4,
      "max": [
        0.6666880249977112,
        0.6666880249977112,
        0.0
      ],
      "min": [
        -0.6666880249977112,
        -0.6666880249977112,
        0.0
      ],
      "type": "VEC3"
    },
    {
      "bufferView": 2,
      "byteOffset": 237432,
      "componentType": 5126,
      "count": 4,
      "max": [
        0.0,
        0.0,
        1.0
      ],
      "min": [
        0.0,
        0.0,
        1.0
      ],
      "type": "VEC3"
    },
    {
      "bufferView": 3,
      "byteOffset": 158256,
      "componentType": 5126,
      "count": 4,
      "max": [
        1.0,
        0.0,
        0.0,
        1.0
      ],
      "min": [
        1.0,
        0.0,
        0.0,
        1.0
      ],
      "type": "VEC4"
    },
    {
      "bufferView": 1,
      "byteOffset": 79128,
      "componentType": 5126,
      "count": 4,
      "max": [
        1.0,
        1.0
      ],
      "min": [
        0.0,
        0.0
      ],
      "type": "VEC2"
    },
    {
      "bufferView": 0,
      "byteOffset": 195744,
      "componentType": 5125,
      "count": 6,
      "type": "SCALAR"
    },
    {
      "bufferView": 2,
      "byteOffset": 237480,
      "componentType": 5126,
      "count": 1600,
      "max": [
        0.0017079999670386314,
        0.05140399932861328,
        0.05140399932861328
      ],
      "min": [
        -0.0017079999670386314,
        -0.05140399932861328,
        -0.05140399932861328
      ],
      "type": "VEC3"
    },
    {
      "bufferView": 2,
      "byteOffset": 256680,
      "componentType": 5126,
      "count": 1600,
      "max": [
        1.0,
        1.0,
        1.0
      ],
      "min": [
        -1.0,
        -1.0,
        -1.0
      ],
      "type": "VEC3"
    },
    {
      "bufferView": 3,
      "byteOffset": 158320,
      "componentType": 5126,
      "count": 1600,
      "max": [
        0.9999952912330627,
        0.8566585183143616,
        0.990108072757721,
        1.0
      ],
      "min": [
        -0.9999692440032959,
        -0.9675312042236328,
        -0.9364449977874756,
        1.0
      ],
      "type": "VEC4"
    },
    {
      "bufferView": 1,
      "byteOffset": 79160,
      "componentType": 5126,
      "count": 1600,
      "max": [
        0.8940849900245667,
        0.981190025806427
      ],
      "min": [
        0.0024590000975877047,
        0.07366299629211426
      ],
      "type": "VEC2"
    },
    {
      "bufferView": 0,
      "byteOffset": 195768,
      "componentType": 5125,
      "count": 4800,
      "type": "SCALAR"
    },
    {
      "bufferView": 2,
      "byteOffset": 275880,
      "componentType": 5126,
      "count": 2683,
      "max": [
        0.04144499823451042,
        0.04144499823451042,
        0.008289000019431114
      ],
      "min": [
        -0.04144499823451042,
        -0.04144499823451042,
        -0.008289000019431114
      ],
      "type": "VEC3"
    },
    {
      "bufferView": 2,
      "byteOffset": 308076,
      "componentType": 5126,
      "count": 2683,
      "max": [
        1.0,
        1.0,
        1.0
      ],
      "min": [
        -1.0,
        -1.0,
        -1.0
      ],
      "type": "VEC3"
    },
    {
      "bufferView": 3,
      "byteOffset": 183920,
      "componentType": 5126,
      "count": 2683,
      "max": [
        0.9998083114624023,
        0.9997898936271667,
        0.0,
        1.0
      ],
      "min": [
        -0.9998020529747009,
        -0.9997990727424622,
        -1.0,
        1.0
      ],
      "type": "VEC4"
    },
    {
      "bufferView": 1,
      "byteOffset": 91960,
      "componentType": 5126,
      "count": 2683,
      "max": [
        0.9787539839744568,
        0.987667977809906
      ],
      "min": [
        0.4874170124530792,
        0.010015999898314476
      ],
      "type": "VEC2"
    },
    {
      "bufferView": 0,
      "byteOffset": 214968,
      "componentType": 5125,
      "count": 7188,
      "type": "SCALAR"
    }
  ],
  "asset": {
    "extras": {
      "author": "Rakshaan (https://sketchfab.com/rakshaan)",
      "license": "CC-BY-4.0 (http://creativecommons.org/licenses/by/4.0/)",
      "source": "https://sketchfab.com/3d-models/neon-showcase-1-a4763c7dda64463d98261b3ba269b037",
      "title": "Neon Showcase 1"
    },
    "generator": "Sketchfab-15.12.0",
    "version": "2.0"
  },
  "bufferViews": [
    {
      "buffer": 0,
      "byteLength": 243720,
      "name": "floatBufferViews",
      "target": 34963
    },
    {
      "buffer": 0,
      "byteLength": 113424,
      "byteOffset": 243720,
      "byteStride": 8,
      "name": "floatBufferViews",
      "target": 34962
    },
    {
      "buffer": 0,
      "byteLength": 340272,
      "byteOffset": 357144,
      "byteStride": 12,
      "name": "floatBufferViews",
      "target": 34962
    },
    {
      "buffer": 0,
      "byteLength": 226848,
      "byteOffset": 697416,
      "byteStride": 16,
      "name": "floatBufferViews",
      "target": 34962
    }
  ],
  "buffers": [
    {
      "byteLength": 924264,
      "uri": "scene.bin"
    }
  ],
  "extensionsUsed": [
    "KHR_materials_emissive_strength",
    "KHR_materials_specular",
    "KHR_materials_transmission"
  ],
  "images": [
    {
      "uri": "textures/Stage_Props_baseColor.png"
    },
    {
      "uri": "textures/Stage_Props_metallicRoughness.png"
    },
    {
      "uri": "textures/Stage_Props_emissive.jpeg"
    },
    {
      "uri": "textures/Stage_Props_normal.png"
    },
    {
      "uri": "textures/Floor_baseColor.png"
    },
    {
      "uri": "textures/Floor_metallicRoughness.png"
    },
    {
      "uri": "textures/Floor_normal.png"
    },
    {
      "uri": "textures/Fragrance_Bottle_baseColor.png"
    },
    {
      "uri": "textures/Fragrance_Bottle_metallicRoughness.png"
    },
    {
      "uri": "textures/Fragrance_Bottle_emissive.jpeg"
    },
    {
      "uri": "textures/Fragrance_Bottle_normal.png"
    },
    {
      "uri": "textures/Fragrance_Bottle_transmission.png"
    }
  ],
  "materials": [
    {
      "alphaMode": "BLEND",
      "doubleSided": true,
      "emissiveFactor": [
        1.0,
        1.0,
        1.0
      ],
      "emissiveTexture": {
        "index": 2
      },
      "extensions": {
        "KHR_materials_emissive_strength": {
          "emissiveStrength": 4.508017718034432
        },
        "KHR_materials_specular": {
          "specularColorFactor": [
            1.0,
            1.0,
            1.0
          ],
          "specularFactor": 0.49935665703183324
        }
      },
      "name": "Stage_Props",
      "normalTexture": {
        "index": 3
      },
      "occlusionTexture": {
        "index": 1
      },
      "pbrMetallicRoughness": {
        "baseColorTexture": {
          "index": 0
        },
        "metallicRoughnessTexture": {
          "index": 1
        }
      }
    },
    {
      "alphaMode": "BLEND",
      "doubleSided": true,
      "extensions": {
        "KHR_materials_specular": {
          "specularColorFactor": [
            1.0,
            1.0,
            1.0
          ],
          "specularFactor": 0.4447324111498944
        }
      },
      "name": "Floor",
      "normalTexture": {
        "index": 6
      },
      "occlusionTexture": {
        "index": 5
      },
      "pbrMetallicRoughness": {
        "baseColorTexture": {
          "index": 4
        },
        "metallicRoughnessTexture": {
          "index": 5
        }
      }
    },
    {
      "alphaMode": "BLEND",
      "doubleSided": true,
      "emissiveFactor": [
        1.0,
        1.0,
        1.0
      ],
      "emissiveTexture": {
        "index": 9
      },
      "extensions": {
        "KHR_materials_specular": {
          "specularColorFactor": [
            1.0,
            1.0,
            1.0
          ],
          "specularFactor": 0.4447324111498944
        },
        "KHR_materials_transmission": {
          "transmissionFactor": 1.0,
          "transmissionTexture": {
            "index": 11
          }
        }
      },
      "name": "Fragrance_Bottle",
      "normalTexture": {
        "index": 10
      },
      "occlusionTexture": {
        "index": 8
      },
      "pbrMetallicRoughness": {
        "baseColorTexture": {
          "index": 7
        },
        "metallicRoughnessTexture": {
          "index": 8
        }
      }
    }
  ],
  "meshes": [
    {
      "name": "defaultMaterial",
      "primitives": [
        {
          "attributes": {
            "NORMAL": 1,
            "POSITION": 0,
            "TANGENT": 2,
            "TEXCOORD_0": 3
          },
          "indices": 4,
          "material": 2,
          "mode": 4
        }
      ]
    },
    {
      "name": "defaultMaterial",
      "primitives": [
        {
          "attributes": {
            "NORMAL": 6,
            "POSITION": 5,
            "TANGENT": 7,
            "TEXCOORD_0": 8
          },
          "indices": 9,
          "material": 2,
          "mode": 4
        }
      ]
    },
    {
      "name": "defaultMaterial",
      "primitives": [
        {
          "attributes": {
            "NORMAL": 11,
            "POSITION": 10,
            "TANGENT": 12,
            "TEXCOORD_0": 13
          },
          "indices": 14,
          "material": 2,
          "mode": 4
        }
      ]
    },
    {
      "name": "defaultMaterial",
      "primitives": [
        {
          "attributes": {
            "NORMAL": 16,
            "POSITION": 15,
            "TANGENT": 17,
            "TEXCOORD_0": 18
          },
          "indices": 19,
          "material": 1,
          "mode": 4
        }
      ]
    },
    {
      "name": "defaultMaterial",
      "primitives": [
        {
          "attributes": {
            "NORMAL": 21,
            "POSITION": 20,
            "TANGENT": 22,
            "TEXCOORD_0": 23
          },
          "indices": 24,
          "material": 0,
          "mode": 4
        }
      ]
    },
    {
      "name": "defaultMaterial",
      "primitives": [
        {
          "attributes": {
            "NORMAL": 26,
            "POSITION": 25,
            "TANGENT": 27,
            "TEXCOORD_0": 28
          },
          "indices": 29,
          "material": 0,
          "mode": 4
        }
      ]
    }
  ],
  "nodes": [
    {
      "children": [
        1
      ],
      "matrix": [
        1.0,
        0.0,
        0.0,
        0.0,
        0.0,
        2.220446049250313e-16,
        -1.0,
        0.0,
        0.0,
        1.0,
        2.220446049250313e-16,
        0.0,
        0.0,
        0.0,
        0.0,
        1.0
      ],
      "name": "Sketchfab_model"
    },
    {
      "children": [
        2,
        4,
        6,
        8,
        10,
        12
      ],
      "matrix": [
        1.0,
        0.0,
        0.0,
        0.0,
        0.0,
        -4.371139006309477e-08,
        0.999999999999999,
        0.0,
        0.0,
        -0.999999999999999,
        -4.371139006309477e-08,
        0.0,
        0.0,
        0.0,
        0.0,
        1.0
      ],
      "name": "Collada visual scene group"
    },
    {
      "children": [
        3
      ],
      "matrix": [
        100.0,
        0.0,
        0.0,
        0.0,
        0.0,
        -1.6e-05,
        -100.0,
        0.0,
        0.0,
        100.0,
        -1.6e-05,
        0.0,
        0.002356,
        3.110331,
        0.003414,
        1.0
      ],
      "name": "Cube.003"
    },
    {
      "mesh": 0,
      "name": "defaultMaterial"
    },
    {
      "children": [
        5
      ],
      "matrix": [
        100.0,
        0.0,
        0.0,
        0.0,
        0.0,
        -1.6e-05,
        -100.0,
        0.0,
        0.0,
        100.0,
        -1.6e-05,
        0.0,
        0.002356,
        3.110331,
        0.003414,
        1.0
      ],
      "name": "Cube.001"
    },
    {
      "mesh": 1,
      "name": "defaultMaterial"
    },
    {
      "children": [
        7
      ],
      "matrix": [
        100.0,
        0.0,
        0.0,
        0.0,
        0.0,
        -1.6e-05,
        -100.0,
        0.0,
        0.0,
        100.0,
        -1.6e-05,
        0.0,
        0.002356,
        5.326072,
        0.003414,
        1.0
      ],
      "name": "Cylinder.002"
    },
    {
      "mesh": 2,
      "name": "defaultMaterial"
    },
    {
      "children": [
        9
      ],
      "matrix": [
        100.0,
        0.0,
        0.0,
        0.0,
        0.0,
        -1.6e-05,
        -100.0,
        0.0,
        0.0,
        100.0,
        -1.6e-05,
        0.0,
        0.0,
        0.0,
        0.0,
        1.0
      ],
      "name": "Plane"
    },
    {
      "mesh": 3,
      "name": "defaultMaterial"
    },
    {
      "children": [
        11
      ],
      "matrix": [
        100.0,
        0.0,
        0.0,
        0.0,
        0.0,
        -1.6e-05,
        -100.0,
        0.0,
        0.0,
        100.0,
        -1.6e-05,
        0.0,
        -8.933392,
        5.116719,
        0.0,
        1.0
      ],
      "name": "Cylinder.001"
    },
    {
      "mesh": 4,
      "name": "defaultMaterial"
    },
    {
      "children": [
        13
      ],
      "matrix": [
        100.0,
        0.0,
        0.0,
        0.0,
        0.0,
        -1.6e-05,
        -100.0,
        0.0,
        0.0,
        100.0,
        -1.6e-05,
        0.0,
        0.0,
        0.828907,
        0.0,
        1.0
      ],
      "name": "Cylinder"
    },
    {
      "mesh": 5,
      "name": "defaultMaterial"
    }
  ],
  "samplers": [
    {
      "magFilter": 9729,
      "minFilter": 9987,
      "wrapS": 10497,
      "wrapT": 10497
    }
  ],
  "scene": 0,
  "scenes": [
    {
      "name": "Sketchfab_Scene",
      "nodes": [
        0
      ]
    }
  ],
  "textures": [
    {
      "sampler": 0,
      "source": 0
    },
    {
      "sampler": 0,
      "source": 1
    },
    {
      "sampler": 0,
      "source": 2
    },
    {
      "sampler": 0,
      "source": 3
    },
    {
      "sampler": 0,
      "source": 4
    },
    {
      "sampler": 0,
      "source": 5
    },
    {
      "sampler": 0,
      "source": 6
    },
    {
      "sampler": 0,
      "source": 7
    },
    {
      "sampler": 0,
      "source": 8
    },
    {
      "sampler": 0,
      "source": 9
    },
    {
      "sampler": 0,
      "source": 10
    },
    {
      "sampler": 0,
      "source": 11
    }
  ]
}
