{
  "accessors": [
    {
      "bufferView": 2,
      "componentType": 5126,
      "count": 9,
      "max": [
        0.5,
        0.0,
        0.39821857213974
      ],
      "min": [
        -0.5,
        0.0,
        -0.39821857213974
      ],
      "type": "VEC3"
    },
    {
      "bufferView": 2,
      "byteOffset": 108,
      "componentType": 5126,
      "count": 9,
      "max": [
        0.0,
        1.0,
        0.0
      ],
      "min": [
        0.0,
        1.0,
        0.0
      ],
      "type": "VEC3"
    },
    {
      "bufferView": 1,
      "componentType": 5126,
      "count": 9,
      "max": [
        0.9802263975143433,
        0.9821635484695435
      ],
      "min": [
        0.021979719400405884,
        0.34502607583999634
      ],
      "type": "VEC2"
    },
    {
      "bufferView": 1,
      "byteOffset": 72,
      "componentType": 5126,
      "count": 9,
      "max": [
        0.9802263975143433,
        0.9821635484695435
      ],
      "min": [
        0.021979719400405884,
        0.34502607583999634
      ],
      "type": "VEC2"
    },
    {
      "bufferView": 1,
      "byteOffset": 144,
      "componentType": 5126,
      "count": 9,
      "max": [
        0.9802263975143433,
        0.9821635484695435
      ],
      "min": [
        0.021979719400405884,
        0.34502607583999634
      ],
      "type": "VEC2"
    },
    {
      "bufferView": 0,
      "componentType": 5125,
      "count": 24,
      "type": "SCALAR"
    },
    {
      "bufferView": 2,
      "byteOffset": 216,
      "componentType": 5126,
      "count": 886,
      "max": [
        0.8767185807228088,
        2.113987445831299,
        0.9005477428436279
      ],
      "min": [
        -0.8593083620071411,
        0.008386243134737015,
        -0.9005477428436279
      ],
      "type": "VEC3"
    },
    {
      "bufferView": 2,
      "byteOffset": 10848,
      "componentType": 5126,
      "count": 886,
      "max": [
        1.0,
        1.0,
        1.0
      ],
      "min": [
        -1.0,
        -1.0,
        -1.0
      ],
      "type": "VEC3"
    },
    {
      "bufferView": 3,
      "componentType": 5126,
      "count": 886,
      "max": [
        0.9220668077468872,
        0.9998365640640259,
        1.0,
        1.0
      ],
      "min": [
        -1.0,
        -1.0,
        -1.0,
        -1.0
      ],
      "type": "VEC4"
    },
    {
      "bufferView": 1,
      "byteOffset": 216,
      "componentType": 5126,
      "count": 886,
      "max": [
        0.9758329391479492,
        0.9677547812461853
      ],
      "min": [
        0.00882028043270111,
        0.021681666374206543
      ],
      "type": "VEC2"
    },
    {
      "bufferView": 1,
      "byteOffset": 7304,
      "componentType": 5126,
      "count": 886,
      "max": [
        0.9758329391479492,
        0.9677547812461853
      ],
      "min": [
        0.00882028043270111,
        0.021681666374206543
      ],
      "type": "VEC2"
    },
    {
      "bufferView": 0,
      "byteOffset": 96,
      "componentType": 5125,
      "count": 2010,
      "type": "SCALAR"
    },
    {
      "bufferView": 2,
      "byteOffset": 21480,
      "componentType": 5126,
      "count": 210,
      "max": [
        0.17309994995594025,
        0.7520118355751038,
        0.17309997975826263
      ],
      "min": [
        -0.17309999465942383,
        0.15582318603992462,
        -0.1731000393629074
      ],
      "type": "VEC3"
    },
    {
      "bufferView": 2,
      "byteOffset": 24000,
      "componentType": 5126,
      "count": 210,
      "max": [
        0.9997206330299377,
        0.8243587017059326,
        0.9997206330299377
      ],
      "min": [
        -0.999720573425293,
        -0.029752830043435097,
        -0.9997206330299377
      ],
      "type": "VEC3"
    },
    {
      "bufferView": 1,
      "byteOffset": 14392,
      "componentType": 5126,
      "count": 210,
      "max": [
        0.6372381448745728,
        0.314092755317688
      ],
      "min": [
        0.026269078254699707,
        0.008608043193817139
      ],
      "type": "VEC2"
    },
    {
      "bufferView": 1,
      "byteOffset": 16072,
      "componentType": 5126,
      "count": 210,
      "max": [
        0.6372381448745728,
        0.314092755317688
      ],
      "min": [
        0.026269078254699707,
        0.008608043193817139
      ],
      "type": "VEC2"
    },
    {
      "bufferView": 1,
      "byteOffset": 17752,
      "componentType": 5126,
      "count": 210,
      "max": [
        0.6372381448745728,
        0.314092755317688
      ],
      "min": [
        0.026269078254699707,
        0.008608043193817139
      ],
      "type": "VEC2"
    },
    {
      "bufferView": 0,
      "byteOffset": 8136,
      "componentType": 5125,
      "count": 600,
      "type": "SCALAR"
    },
    {
      "bufferView": 2,
      "byteOffset": 26520,
      "componentType": 5126,
      "count": 168,
      "max": [
        0.1701546013355255,
        0.47926557064056396,
        0.1701546311378479
      ],
      "min": [
        -0.1701546460390091,
        0.11852235347032547,
        -0.17015469074249268
      ],
      "type": "VEC3"
    },
    {
      "bufferView": 2,
      "byteOffset": 28536,
      "componentType": 5126,
      "count": 168,
      "max": [
        0.999557375907898,
        1.0,
        0.9995573163032532
      ],
      "min": [
        -0.999557375907898,
        -1.0,
        -0.9995573163032532
      ],
      "type": "VEC3"
    },
    {
      "bufferView": 1,
      "byteOffset": 19432,
      "componentType": 5126,
      "count": 168,
      "max": [
        0.9733039736747742,
        0.9423614740371704
      ],
      "min": [
        0.024984896183013916,
        0.015414029359817505
      ],
      "type": "VEC2"
    },
    {
      "bufferView": 0,
      "byteOffset": 10536,
      "componentType": 5125,
      "count": 480,
      "type": "SCALAR"
    },
    {
      "bufferView": 2,
      "byteOffset": 30552,
      "componentType": 5126,
      "count": 9,
      "max": [
        0.5,
        0.0,
        0.3826923966407776
      ],
      "min": [
        -0.5,
        -0.054820526391267776,
        -0.3826923966407776
      ],
      "type": "VEC3"
    },
    {
      "bufferView": 2,
      "byteOffset": 30660,
      "componentType": 5126,
      "count": 9,
      "max": [
        0.1066737100481987,
        0.9999993443489075,
        0.0
      ],
      "min": [
        -0.10898793488740921,
        0.9940431118011475,
        0.0
      ],
      "type": "VEC3"
    },
    {
      "bufferView": 1,
      "byteOffset": 20776,
      "componentType": 5126,
      "count": 9,
      "max": [
        0.9802263975143433,
        0.9821635484695435
      ],
      "min": [
        0.021979719400405884,
        0.34502607583999634
      ],
      "type": "VEC2"
    },
    {
      "bufferView": 1,
      "byteOffset": 20848,
      "componentType": 5126,
      "count": 9,
      "max": [
        0.9802263975143433,
        0.9821635484695435
      ],
      "min": [
        0.021979719400405884,
        0.34502607583999634
      ],
      "type": "VEC2"
    },
    {
      "bufferView": 1,
      "byteOffset": 20920,
      "componentType": 5126,
      "count": 9,
      "max": [
        0.9802263975143433,
        0.9821635484695435
      ],
      "min": [
        0.021979719400405884,
        0.34502607583999634
      ],
      "type": "VEC2"
    },
    {
      "bufferView": 0,
      "byteOffset": 12456,
      "componentType": 5125,
      "count": 24,
      "type": "SCALAR"
    },
    {
      "bufferView": 2,
      "byteOffset": 30768,
      "componentType": 5126,
      "count": 216,
      "max": [
        0.9228742718696594,
        2.113987445831299,
        0.9005477428436279
      ],
      "min": [
        -0.8593083620071411,
        0.13345330953598022,
        -0.9005477428436279
      ],
      "type": "VEC3"
    },
    {
      "bufferView": 2,
      "byteOffset": 33360,
      "componentType": 5126,
      "count": 216,
      "max": [
        0.9999971985816956,
        1.0,
        1.0
      ],
      "min": [
        -1.0,
        -1.0,
        -1.0
      ],
      "type": "VEC3"
    },
    {
      "bufferView": 3,
      "byteOffset": 14176,
      "componentType": 5126,
      "count": 216,
      "max": [
        1.0,
        1.0,
        1.0,
        1.0
      ],
      "min": [
        -1.0,
        -0.07043888419866562,
        -1.0,
        -1.0
      ],
      "type": "VEC4"
    },
    {
      "bufferView": 1,
      "byteOffset": 20992,
      "componentType": 5126,
      "count": 216,
      "max": [
        0.9700095057487488,
        0.9764609336853027
      ],
      "min": [
        0.032660383731126785,
        0.006880724336951971
      ],
      "type": "VEC2"
    },
    {
      "bufferView": 1,
      "byteOffset": 22720,
      "componentType": 5126,
      "count": 216,
      "max": [
        0.9700095057487488,
        0.9764609336853027
      ],
      "min": [
        0.032660383731126785,
        0.006880724336951971
      ],
      "type": "VEC2"
    },
    {
      "bufferView": 1,
      "byteOffset": 24448,
      "componentType": 5126,
      "count": 216,
      "max": [
        0.9700095057487488,
        0.9764609336853027
      ],
      "min": [
        0.032660383731126785,
        0.006880724336951971
      ],
      "type": "VEC2"
    },
    {
      "bufferView": 0,
      "byteOffset": 12552,
      "componentType": 5125,
      "count": 474,
      "type": "SCALAR"
    }
  ],
  "asset": {
    "extras": {
      "author": "nickheitzman (https://sketchfab.com/nickheitzman)",
      "license": "CC-BY-4.0 (http://creativecommons.org/licenses/by/4.0/)",
      "source": "https://sketchfab.com/3d-models/portable-replicator-coffee-selected-fa53f027fd9142eba76b7cf775102c2d",
      "title": "Portable Replicator - Coffee Selected"
    },
    "generator": "Sketchfab-14.41.0",
    "version": "2.0"
  },
  "bufferViews": [
    {
      "buffer": 0,
      "byteLength": 14448,
      "name": "floatBufferViews",
      "target": 34963
    },
    {
      "buffer": 0,
      "byteLength": 26176,
      "byteOffset": 14448,
      "byteStride": 8,
      "name": "floatBufferViews",
      "target": 34962
    },
    {
      "buffer": 0,
      "byteLength": 35952,
      "byteOffset": 40624,
      "byteStride": 12,
      "name": "floatBufferViews",
      "target": 34962
    },
    {
      "buffer": 0,
      "byteLength": 17632,
      "byteOffset": 76576,
      "byteStride": 16,
      "name": "floatBufferViews",
      "target": 34962
    }
  ],
  "buffers": [
    {
      "byteLength": 94208,
      "uri": "scene.bin"
    }
  ],
  "extensionsUsed": [
    "KHR_materials_clearcoat"
  ],
  "images": [
    {
      "uri": "textures/Transparent_baseColor.png"
    },
    {
      "uri": "textures/Transparent_emissive.png"
    },
    {
      "uri": "textures/Coffee_Case_baseColor.png"
    },
    {
      "uri": "textures/Coffee_Case_normal.png"
    },
    {
      "uri": "textures/Coffee_cup_baseColor.png"
    },
    {
      "uri": "textures/Shiny_Stuff1_baseColor.png"
    },
    {
      "uri": "textures/Shiny_Stuff1_emissive.png"
    },
    {
      "uri": "textures/Shiny_Stuff1_normal.png"
    }
  ],
  "materials": [
    {
      "alphaMode": "BLEND",
      "doubleSided": true,
      "emissiveFactor": [
        1.0,
        1.0,
        1.0
      ],
      "emissiveTexture": {
        "index": 1
      },
      "name": "Transparent",
      "pbrMetallicRoughness": {
        "baseColorTexture": {
          "index": 0
        },
        "metallicFactor": 0.5592397995879607,
        "roughnessFactor": 0.25790250027428663
      }
    },
    {
      "name": "Coffee_Case",
      "normalTexture": {
        "index": 3
      },
      "pbrMetallicRoughness": {
        "baseColorTexture": {
          "index": 2
        },
        "metallicFactor": 0.5409540295741854,
        "roughnessFactor": 0.9438041009361771
      }
    },
    {
      "doubleSided": true,
      "name": "Coffee_cup",
      "pbrMetallicRoughness": {
        "baseColorTexture": {
          "index": 4
        },
        "metallicFactor": 0.0,
        "roughnessFactor": 0.6
      }
    },
    {
      "emissiveFactor": [
        0.6552400921602808,
        0.6552400921602808,
        0.6552400921602808
      ],
      "emissiveTexture": {
        "index": 6
      },
      "extensions": {
        "KHR_materials_clearcoat": {
          "clearcoatFactor": 1.0,
          "clearcoatRoughnessFactor": 0.04
        }
      },
      "name": "Shiny_Stuff1",
      "normalTexture": {
        "index": 7
      },
      "pbrMetallicRoughness": {
        "baseColorTexture": {
          "index": 5
        },
        "metallicFactor": 0.3276200460801404,
        "roughnessFactor": 0.45904597042581463
      }
    }
  ],
  "meshes": [
    {
      "name": "pPlane1_Transparent_0",
      "primitives": [
        {
          "attributes": {
            "NORMAL": 1,
            "POSITION": 0,
            "TEXCOORD_0": 2,
            "TEXCOORD_1": 3,
            "TEXCOORD_2": 4
          },
          "indices": 5,
          "material": 0,
          "mode": 4
        }
      ]
    },
    {
      "name": "Body_Coffee_Case_0",
      "primitives": [
        {
          "attributes": {
            "NORMAL": 7,
            "POSITION": 6,
            "TANGENT": 8,
            "TEXCOORD_0": 9,
            "TEXCOORD_1": 10
          },
          "indices": 11,
          "material": 1,
          "mode": 4
        }
      ]
    },
    {
      "name": "polySurface1_Transparent_0",
      "primitives": [
        {
          "attributes": {
            "NORMAL": 13,
            "POSITION": 12,
            "TEXCOORD_0": 14,
            "TEXCOORD_1": 15,
            "TEXCOORD_2": 16
          },
          "indices": 17,
          "material": 0,
          "mode": 4
        }
      ]
    },
    {
      "name": "polySurface2_Coffee_cup_0",
      "primitives": [
        {
          "attributes": {
            "NORMAL": 19,
            "POSITION": 18,
            "TEXCOORD_0": 20
          },
          "indices": 21,
          "material": 2,
          "mode": 4
        }
      ]
    },
    {
      "name": "pPlane2_Transparent_0",
      "primitives": [
        {
          "attributes": {
            "NORMAL": 23,
            "POSITION": 22,
            "TEXCOORD_0": 24,
            "TEXCOORD_1": 25,
            "TEXCOORD_2": 26
          },
          "indices": 27,
          "material": 0,
          "mode": 4
        }
      ]
    },
    {
      "name": "Shiny_Stuff_Shiny_Stuff1_0",
      "primitives": [
        {
          "attributes": {
            "NORMAL": 29,
            "POSITION": 28,
            "TANGENT": 30,
            "TEXCOORD_0": 31,
            "TEXCOORD_1": 32,
            "TEXCOORD_2": 33
          },
          "indices": 34,
          "material": 3,
          "mode": 4
        }
      ]
    }
  ],
  "nodes": [
    {
      "children": [
        1
      ],
      "matrix": [
        1.0,
        0.0,
        0.0,
        0.0,
        0.0,
        2.220446049250313e-16,
        -1.0,
        0.0,
        0.0,
        1.0,
        2.220446049250313e-16,
        0.0,
        0.0,
        0.0,
        0.0,
        1.0
      ],
      "name": "Sketchfab_model"
    },
    {
      "children": [
        2
      ],
      "matrix": [
        0.009999999776482582,
        0.0,
        0.0,
        0.0,
        0.0,
        0.0,
        0.009999999776482582,
        0.0,
        0.0,
        -0.009999999776482582,
        0.0,
        0.0,
        0.0,
        0.0,
        0.0,
        1.0
      ],
      "name": "11cf7e4501334a5bab1247065a19139c.fbx"
    },
    {
      "children": [
        3,
        5,
        7,
        9,
        11,
        13
      ],
      "name": "RootNode"
    },
    {
      "children": [
        4
      ],
      "matrix": [
        1.0,
        0.0,
        0.0,
        0.0,
        0.0,
        1.0,
        0.0,
        0.0,
        0.0,
        0.0,
        1.0,
        0.0,
        -0.024741949513554573,
        0.4854447841644287,
        0.0,
        1.0
      ],
      "name": "pPlane1"
    },
    {
      "mesh": 0,
      "name": "pPlane1_Transparent_0"
    },
    {
      "children": [
        6
      ],
      "name": "Body"
    },
    {
      "mesh": 1,
      "name": "Body_Coffee_Case_0"
    },
    {
      "children": [
        8
      ],
      "name": "polySurface1"
    },
    {
      "mesh": 2,
      "name": "polySurface1_Transparent_0"
    },
    {
      "children": [
        10
      ],
      "name": "polySurface2"
    },
    {
      "mesh": 3,
      "name": "polySurface2_Coffee_cup_0"
    },
    {
      "children": [
        12
      ],
      "matrix": [
        1.0,
        0.0,
        0.0,
        0.0,
        0.0,
        1.0,
        0.0,
        0.0,
        0.0,
        0.0,
        1.0,
        0.0,
        -0.024741949513554573,
        0.5422367453575134,
        0.0,
        1.0
      ],
      "name": "pPlane2"
    },
    {
      "mesh": 4,
      "name": "pPlane2_Transparent_0"
    },
    {
      "children": [
        14
      ],
      "name": "Shiny_Stuff"
    },
    {
      "mesh": 5,
      "name": "Shiny_Stuff_Shiny_Stuff1_0"
    }
  ],
  "samplers": [
    {
      "magFilter": 9729,
      "minFilter": 9987,
      "wrapS": 10497,
      "wrapT": 10497
    }
  ],
  "scene": 0,
  "scenes": [
    {
      "name": "Sketchfab_Scene",
      "nodes": [
        0
      ]
    }
  ],
  "textures": [
    {
      "sampler": 0,
      "source": 0
    },
    {
      "sampler": 0,
      "source": 1
    },
    {
      "sampler": 0,
      "source": 2
    },
    {
      "sampler": 0,
      "source": 3
    },
    {
      "sampler": 0,
      "source": 4
    },
    {
      "sampler": 0,
      "source": 5
    },
    {
      "sampler": 0,
      "source": 6
    },
    {
      "sampler": 0,
      "source": 7
    }
  ]
}
