{
  "accessors": [
    {
      "bufferView": 2,
      "componentType": 5126,
      "count": 570,
      "max": [
        10.748160362243652,
        9.342879295349121,
        -5.223787784576416
      ],
      "min": [
        2.8460450172424316,
        1.440762996673584,
        -12.794708251953125
      ],
      "type": "VEC3"
    },
    {
      "bufferView": 2,
      "byteOffset": 6840,
      "componentType": 5126,
      "count": 570,
      "max": [
        1.0,
        1.0,
        1.0
      ],
      "min": [
        -1.0,
        -1.0,
        -1.0
      ],
      "type": "VEC3"
    },
    {
      "bufferView": 1,
      "componentType": 5126,
      "count": 570,
      "max": [
        0.9399629831314087,
        0.9980080127716064
      ],
      "min": [
        0.0018759999657049775,
        0.0019920000340789557
      ],
      "type": "VEC2"
    },
    {
      "bufferView": 0,
      "componentType": 5125,
      "count": 2640,
      "type": "SCALAR"
    },
    {
      "bufferView": 2,
      "byteOffset": 13680,
      "componentType": 5126,
      "count": 1338,
      "max": [
        12.033759117126465,
        10.628478050231934,
        -5.0366082191467285
      ],
      "min": [
        1.56044602394104,
        0.15516400337219238,
        -13.036611557006836
      ],
      "type": "VEC3"
    },
    {
      "bufferView": 2,
      "byteOffset": 29736,
      "componentType": 5126,
      "count": 1338,
      "max": [
        1.0,
        1.0,
        1.0
      ],
      "min": [
        -1.0,
        -1.0,
        -1.0
      ],
      "type": "VEC3"
    },
    {
      "bufferView": 1,
      "byteOffset": 4560,
      "componentType": 5126,
      "count": 1338,
      "max": [
        0.6701220273971558,
        0.646399974822998
      ],
      "min": [
        0.3350589871406555,
        0.067842997610569
      ],
      "type": "VEC2"
    },
    {
      "bufferView": 0,
      "byteOffset": 10560,
      "componentType": 5125,
      "count": 6600,
      "type": "SCALAR"
    },
    {
      "bufferView": 2,
      "byteOffset": 45792,
      "componentType": 5126,
      "count": 4222,
      "max": [
        14.336502075195313,
        6.493907928466797,
        2.3494648933410645
      ],
      "min": [
        4.551412105560303,
        -9.58568286895752,
        -10.441307067871094
      ],
      "type": "VEC3"
    },
    {
      "bufferView": 2,
      "byteOffset": 96456,
      "componentType": 5126,
      "count": 4222,
      "max": [
        0.9994035363197327,
        0.9978572130203247,
        0.9979607462882996
      ],
      "min": [
        -0.9994053244590759,
        -0.9978512525558472,
        -0.9994878172874451
      ],
      "type": "VEC3"
    },
    {
      "bufferView": 1,
      "byteOffset": 15264,
      "componentType": 5126,
      "count": 4222,
      "max": [
        0.44658800959587097,
        1.1570689678192139
      ],
      "min": [
        0.28846698999404907,
        -0.12152999639511108
      ],
      "type": "VEC2"
    },
    {
      "bufferView": 0,
      "byteOffset": 36960,
      "componentType": 5125,
      "count": 17112,
      "type": "SCALAR"
    },
    {
      "bufferView": 2,
      "byteOffset": 147120,
      "componentType": 5126,
      "count": 5924,
      "max": [
        12.704821586608887,
        10.419463157653809,
        0.29921698570251465
      ],
      "min": [
        1.633085012435913,
        0.1430709958076477,
        -5.849165916442871
      ],
      "type": "VEC3"
    },
    {
      "bufferView": 2,
      "byteOffset": 218208,
      "componentType": 5126,
      "count": 5924,
      "max": [
        0.9996576309204102,
        0.9999826550483704,
        0.9997000098228455
      ],
      "min": [
        -0.9998757839202881,
        -0.9997228980064392,
        -1.0
      ],
      "type": "VEC3"
    },
    {
      "bufferView": 1,
      "byteOffset": 49040,
      "componentType": 5126,
      "count": 5924,
      "max": [
        0.875,
        1.0
      ],
      "min": [
        0.125,
        0.0
      ],
      "type": "VEC2"
    },
    {
      "bufferView": 0,
      "byteOffset": 105408,
      "componentType": 5125,
      "count": 34464,
      "type": "SCALAR"
    },
    {
      "bufferView": 2,
      "byteOffset": 289296,
      "componentType": 5126,
      "count": 4480,
      "max": [
        16.63634490966797,
        14.31175422668457,
        3.2928009033203125
      ],
      "min": [
        -0.04370899870991707,
        -11.016071319580078,
        -11.791118621826172
      ],
      "type": "VEC3"
    },
    {
      "bufferView": 2,
      "byteOffset": 343056,
      "componentType": 5126,
      "count": 4480,
      "max": [
        0.9980202317237854,
        0.9989136457443237,
        0.9999226331710815
      ],
      "min": [
        -0.9996156096458435,
        -0.9968459010124207,
        -0.9865535497665405
      ],
      "type": "VEC3"
    },
    {
      "bufferView": 1,
      "byteOffset": 96432,
      "componentType": 5126,
      "count": 4480,
      "max": [
        0.9453259706497192,
        1.0
      ],
      "min": [
        0.125,
        0.0
      ],
      "type": "VEC2"
    },
    {
      "bufferView": 0,
      "byteOffset": 243264,
      "componentType": 5125,
      "count": 21660,
      "type": "SCALAR"
    }
  ],
  "asset": {
    "extras": {
      "author": "raeofsunlight (https://sketchfab.com/raeofsunlight)",
      "license": "CC-BY-4.0 (http://creativecommons.org/licenses/by/4.0/)",
      "source": "https://sketchfab.com/3d-models/house-plant-aae3a509b9d541f890fb69b913822679",
      "title": "House Plant"
    },
    "generator": "Sketchfab-12.65.0",
    "version": "2.0"
  },
  "bufferViews": [
    {
      "buffer": 0,
      "byteLength": 329904,
      "name": "floatBufferViews",
      "target": 34963
    },
    {
      "buffer": 0,
      "byteLength": 132272,
      "byteOffset": 329904,
      "byteStride": 8,
      "name": "floatBufferViews",
      "target": 34962
    },
    {
      "buffer": 0,
      "byteLength": 396816,
      "byteOffset": 462176,
      "byteStride": 12,
      "name": "floatBufferViews",
      "target": 34962
    }
  ],
  "buffers": [
    {
      "byteLength": 858992,
      "uri": "scene.bin"
    }
  ],
  "images": [
    {
      "uri": "textures/lambert3SG_baseColor.jpeg"
    },
    {
      "uri": "textures/lambert4SG_baseColor.png"
    },
    {
      "uri": "textures/lambert6SG_baseColor.jpeg"
    }
  ],
  "materials": [
    {
      "doubleSided": true,
      "name": "blinn3SG",
      "pbrMetallicRoughness": {
        "baseColorFactor": [
          0.1946178304415757,
          0.3662525955988395,
          0.08865558628577294,
          1.0
        ],
        "metallicFactor": 0.0,
        "roughnessFactor": 0.6
      }
    },
    {
      "doubleSided": true,
      "name": "lambert3SG",
      "pbrMetallicRoughness": {
        "baseColorTexture": {
          "index": 0
        },
        "metallicFactor": 0.0,
        "roughnessFactor": 0.6
      }
    },
    {
      "doubleSided": true,
      "name": "lambert4SG",
      "pbrMetallicRoughness": {
        "baseColorTexture": {
          "index": 1
        },
        "metallicFactor": 0.0,
        "roughnessFactor": 0.6
      }
    },
    {
      "doubleSided": true,
      "name": "lambert6SG",
      "pbrMetallicRoughness": {
        "baseColorTexture": {
          "index": 2
        },
        "metallicFactor": 0.0,
        "roughnessFactor": 0.6
      }
    }
  ],
  "meshes": [
    {
      "name": "Object_0",
      "primitives": [
        {
          "attributes": {
            "NORMAL": 1,
            "POSITION": 0,
            "TEXCOORD_0": 2
          },
          "indices": 3,
          "material": 1,
          "mode": 4
        }
      ]
    },
    {
      "name": "Object_1",
      "primitives": [
        {
          "attributes": {
            "NORMAL": 5,
            "POSITION": 4,
            "TEXCOORD_0": 6
          },
          "indices": 7,
          "material": 3,
          "mode": 4
        }
      ]
    },
    {
      "name": "Object_2",
      "primitives": [
        {
          "attributes": {
            "NORMAL": 9,
            "POSITION": 8,
            "TEXCOORD_0": 10
          },
          "indices": 11,
          "material": 0,
          "mode": 4
        }
      ]
    },
    {
      "name": "Object_3",
      "primitives": [
        {
          "attributes": {
            "NORMAL": 13,
            "POSITION": 12,
            "TEXCOORD_0": 14
          },
          "indices": 15,
          "material": 0,
          "mode": 4
        }
      ]
    },
    {
      "name": "Object_4",
      "primitives": [
        {
          "attributes": {
            "NORMAL": 17,
            "POSITION": 16,
            "TEXCOORD_0": 18
          },
          "indices": 19,
          "material": 2,
          "mode": 4
        }
      ]
    }
  ],
  "nodes": [
    {
      "children": [
        1
      ],
      "matrix": [
        1.0,
        0.0,
        0.0,
        0.0,
        0.0,
        2.220446049250313e-16,
        -1.0,
        0.0,
        0.0,
        1.0,
        2.220446049250313e-16,
        0.0,
        0.0,
        0.0,
        0.0,
        1.0
      ],
      "name": "Sketchfab_model"
    },
    {
      "children": [
        2,
        3,
        4,
        5,
        6
      ],
      "name": "plant2.obj.cleaner.materialmerger.gles"
    },
    {
      "mesh": 0,
      "name": "Object_2"
    },
    {
      "mesh": 1,
      "name": "Object_3"
    },
    {
      "mesh": 2,
      "name": "Object_4"
    },
    {
      "mesh": 3,
      "name": "Object_5"
    },
    {
      "mesh": 4,
      "name": "Object_6"
    }
  ],
  "samplers": [
    {
      "magFilter": 9729,
      "minFilter": 9987,
      "wrapS": 10497,
      "wrapT": 10497
    }
  ],
  "scene": 0,
  "scenes": [
    {
      "name": "Sketchfab_Scene",
      "nodes": [
        0
      ]
    }
  ],
  "textures": [
    {
      "sampler": 0,
      "source": 0
    },
    {
      "sampler": 0,
      "source": 1
    },
    {
      "sampler": 0,
      "source": 2
    }
  ]
}
